<svg xmlns="http://www.w3.org/2000/svg" viewBox="0 0 114.99 208.58">

    <defs>
        <style>
            .cls-1{
                fill:#000;
            }
            @media (prefers-color-scheme: dark) {
                .cls-1 {
                    fill: #fff;
                }
            }
        </style>

    </defs>
    <title>Asset 2</title>
    <g id="Layer_2" data-name="Layer 2">
        <g id="Layer_1-2" data-name="Layer 1">
            <path class="cls-1" d="M0,208.21c11.33-11.25,21.68-21.6,32.18-31.8,1-1,3-1.33,4.51-1.35,8.16-.13,16.33,0,24.49-.08,8.95-.07,15.21-4.35,18.61-12.56s1.67-15.31-4.42-21.54c-4.53-4.64-9.05-9.29-13.87-14.25l-61,61.28c-.17-2.65-.36-4.2-.36-5.74C.1,148,0,113.83.26,79.66a12.44,12.44,0,0,1,3.19-7.74c9.49-10,19.34-19.7,29.91-30.35V106.3c1.74-1.37,2.77-2,3.61-2.87Q56.08,84.37,75.14,65.25c6.42-6.45,8-14.09,4.6-21.93C76.19,35.16,69.89,31,61,30.92a90.08,90.08,0,0,1-16.13-1.08c3.64-3.5,7.33-6.95,10.93-10.5,5.69-5.62,11.48-11.16,16.9-17C75.18-.4,77.37-.45,80.57.74c34.57,12.82,45.87,58.15,21.06,85.49C96.51,91.87,90.5,96.7,84.18,102.58c5.75,5.5,10.73,9.9,15.28,14.69,27.28,28.74,17.07,74.79-19.63,88.05a52.67,52.67,0,0,1-16.57,3.06c-19.82.36-39.66.14-59.48.12C3,208.5,2.18,208.38,0,208.21Z"/>
        </g>
    </g>
</svg>