<svg xmlns="http://www.w3.org/2000/svg" viewBox="0 0 64 64">

    <path fill="url(#nT5WH7nXAOiS46rXmee3Ob)" d="M58,32c0,13.35-10.05,24.34-23,25.83C34.02,57.94,33.01,58,32,58c-1.71,0-3.38-0.17-5-0.49	C15.03,55.19,6,44.65,6,32C6,17.64,17.64,6,32,6S58,17.64,58,32z"/>
    <path fill="#fff" d="M42.8,36.05l-0.76,2C41.6,39.22,40.46,40,39.19,40H35v17.83C34.02,57.94,33.01,58,32,58	c-1.71,0-3.38-0.17-5-0.49V40h-2.95C22.36,40,21,38.66,21,37v-2c0-1.66,1.36-3,3.05-3H27v-6c0-5.51,4.49-10,10-10h3	c2.21,0,4,1.79,4,4s-1.79,4-4,4h-3c-1.1,0-2,0.9-2,2v6h4.95C42.08,32,43.55,34.09,42.8,36.05z"/>
</svg>