<svg xmlns="http://www.w3.org/2000/svg" viewBox="0 0 64 64"><path fill="url(#jAVUMfCM1liBjYZwQpghOb)" d="M50,12H14c-2.209,0-4,1.791-4,4v36c0,2.209,1.791,4,4,4h36c2.209,0,4-1.791,4-4V16 C54,13.791,52.209,12,50,12z"/><path fill="#fff" d="M19 28h2c1.105 0 2 .895 2 2v17c0 1.105-.895 2-2 2h-2c-1.105 0-2-.895-2-2V30C17 28.895 17.895 28 19 28zM19.981 25h-.033C18.158 25 17 23.664 17 22c0-1.706 1.195-3 3.019-3 1.823 0 2.948 1.294 2.981 3C23 23.664 21.842 25 19.981 25zM45 49h-2c-1.105 0-2-.895-2-2v-9.372c0-2.749-1.506-4.624-4.239-4.624-1.953 0-3.133 1.265-3.626 2.485C32.954 35.929 33 37.14 33 37.75V47c0 1.105-.888 2-1.993 2H29c-1.105 0-2-.895-2-2V30c0-1.105.895-2 2-2h2.007c1.105 0 2 .895 2 2v1.021C33.911 29.625 35.564 28 39.173 28 43.646 28 47 30.563 47 36.842V47C47 48.105 46.105 49 45 49z"/></svg>